<svg width="10" height="10" viewBox="0 0 10 10" fill="none" xmlns="http://www.w3.org/2000/svg">
<path d="M5 8.6C3.75 8.6 2.645 7.96 2 7C2.015 6 4 5.45 5 5.45C6 5.45 7.985 6 8 7C7.355 7.96 6.25 8.6 5 8.6ZM5 1.5C5.39782 1.5 5.77936 1.65804 6.06066 1.93934C6.34196 2.22064 6.5 2.60218 6.5 3C6.5 3.39782 6.34196 3.77936 6.06066 4.06066C5.77936 4.34196 5.39782 4.5 5 4.5C4.60218 4.5 4.22064 4.34196 3.93934 4.06066C3.65804 3.77936 3.5 3.39782 3.5 3C3.5 2.60218 3.65804 2.22064 3.93934 1.93934C4.22064 1.65804 4.60218 1.5 5 1.5ZM5 0C4.34339 0 3.69321 0.129329 3.08658 0.380602C2.47995 0.631876 1.92876 1.00017 1.46447 1.46447C0.526784 2.40215 0 3.67392 0 5C0 6.32608 0.526784 7.59785 1.46447 8.53553C1.92876 8.99983 2.47995 9.36812 3.08658 9.6194C3.69321 9.87067 4.34339 10 5 10C6.32608 10 7.59785 9.47322 8.53553 8.53553C9.47322 7.59785 10 6.32608 10 5C10 2.235 7.75 0 5 0Z" fill="#1B262C"/>
</svg>
