<svg width="11" height="8" viewBox="0 0 11 8" fill="none" xmlns="http://www.w3.org/2000/svg">
<g clip-path="url(#clip0_14_30)">
<path d="M0 1.18047C0.043953 1.0716 0.0745074 0.952069 0.134584 0.856032C0.283648 0.61766 0.497349 0.525706 0.755238 0.525971C3.82325 0.528623 6.89131 0.527669 9.95933 0.527669C10.0593 0.527669 10.1593 0.52735 10.2593 0.527774C10.5705 0.5291 10.7969 0.694184 10.9182 1.00977C11.036 1.31644 10.9722 1.60106 10.7696 1.84478C10.7476 1.87124 10.7247 1.8967 10.702 1.92231C9.14631 3.67735 7.59122 5.43308 6.03322 7.18552C5.94635 7.28325 5.84518 7.37987 5.7341 7.43211C5.49182 7.54607 5.25814 7.50046 5.05361 7.30669C5.00994 7.26533 4.96866 7.22052 4.92828 7.17496C3.3951 5.4458 1.86257 3.7159 0.328403 1.98786C0.182911 1.82399 0.0464444 1.65743 0 1.42224C0 1.34163 0 1.26108 0 1.18047Z" fill="white"/>
</g>
<defs>
<clipPath id="clip0_14_30">
<rect width="11" height="7" fill="white" transform="translate(0 0.5)"/>
</clipPath>
</defs>
</svg>
