<svg width="24" height="24" viewBox="0 0 24 24" fill="none" xmlns="http://www.w3.org/2000/svg">
<path d="M12 5C11.0717 5 10.1815 5.36875 9.52513 6.02513C8.86875 6.6815 8.5 7.57174 8.5 8.5C8.5 9.42826 8.86875 10.3185 9.52513 10.9749C10.1815 11.6313 11.0717 12 12 12C12.9283 12 13.8185 11.6313 14.4749 10.9749C15.1313 10.3185 15.5 9.42826 15.5 8.5C15.5 7.57174 15.1313 6.6815 14.4749 6.02513C13.8185 5.36875 12.9283 5 12 5ZM12 7C12.3978 7 12.7794 7.15804 13.0607 7.43934C13.342 7.72064 13.5 8.10218 13.5 8.5C13.5 8.89782 13.342 9.27936 13.0607 9.56066C12.7794 9.84196 12.3978 10 12 10C11.6022 10 11.2206 9.84196 10.9393 9.56066C10.658 9.27936 10.5 8.89782 10.5 8.5C10.5 8.10218 10.658 7.72064 10.9393 7.43934C11.2206 7.15804 11.6022 7 12 7ZM5.5 8C4.83696 8 4.20107 8.26339 3.73223 8.73223C3.26339 9.20107 3 9.83696 3 10.5C3 11.44 3.53 12.25 4.29 12.68C4.65 12.88 5.06 13 5.5 13C5.94 13 6.35 12.88 6.71 12.68C7.08 12.47 7.39 12.17 7.62 11.81C6.89 10.86 6.5 9.7 6.5 8.5C6.5 8.41 6.5 8.31 6.5 8.22C6.2 8.08 5.86 8 5.5 8ZM18.5 8C18.14 8 17.8 8.08 17.5 8.22C17.5 8.31 17.5 8.41 17.5 8.5C17.5 9.7 17.11 10.86 16.38 11.81C16.5 12 16.63 12.15 16.78 12.3C16.94 12.45 17.1 12.58 17.29 12.68C17.65 12.88 18.06 13 18.5 13C18.94 13 19.35 12.88 19.71 12.68C20.47 12.25 21 11.44 21 10.5C21 9.83696 20.7366 9.20107 20.2678 8.73223C19.7989 8.26339 19.163 8 18.5 8ZM12 14C9.66 14 5 15.17 5 17.5V19H19V17.5C19 15.17 14.34 14 12 14ZM4.71 14.55C2.78 14.78 0 15.76 0 17.5V19H3V17.07C3 16.06 3.69 15.22 4.71 14.55ZM19.29 14.55C20.31 15.22 21 16.06 21 17.07V19H24V17.5C24 15.76 21.22 14.78 19.29 14.55ZM12 16C13.53 16 15.24 16.5 16.23 17H7.77C8.76 16.5 10.47 16 12 16Z" fill="white"/>
</svg>
