<svg width="13" height="13" viewBox="0 0 13 13" fill="none" xmlns="http://www.w3.org/2000/svg">
<path d="M5.51417 9.20829H3.79167V8.12496H5.41667C5.46 7.75663 5.54125 7.38829 5.6875 7.04163H3.79167V5.95829H6.4025C6.41875 5.94204 6.42958 5.92579 6.44583 5.90413C7.13375 5.22163 8.03833 4.87496 8.9375 4.87496H3.79167V3.79163H9.20833V4.87496H8.9375C9.815 4.87496 10.6925 5.20538 11.375 5.86079V2.70829C11.375 2.11246 10.8929 1.62496 10.2917 1.62496H8.0275C7.8 0.996626 7.20417 0.541626 6.5 0.541626C5.79583 0.541626 5.2 0.996626 4.9725 1.62496H2.70833C2.1125 1.62496 1.625 2.11246 1.625 2.70829V10.2916C1.625 10.8929 2.1125 11.375 2.70833 11.375H7.07417C6.85208 11.2341 6.64083 11.077 6.44583 10.8875C5.95833 10.4054 5.66042 9.82038 5.51417 9.20829ZM6.5 1.62496C6.79792 1.62496 7.04167 1.86871 7.04167 2.16663C7.04167 2.46454 6.79792 2.70829 6.5 2.70829C6.20208 2.70829 5.95833 2.46454 5.95833 2.16663C5.95833 1.86871 6.20208 1.62496 6.5 1.62496ZM11.0013 9.69579C11.2396 9.32204 11.375 8.87246 11.375 8.39579C11.375 7.04163 10.2917 5.95829 8.9375 5.95829C7.58333 5.95829 6.5 7.04163 6.5 8.39579C6.5 9.74996 7.58333 10.8333 8.9375 10.8333C9.40875 10.8333 9.85292 10.6979 10.2267 10.465L11.9167 12.1279L12.6696 11.375L11.0013 9.69579ZM8.9375 9.74996C8.19 9.74996 7.58333 9.14329 7.58333 8.39579C7.58333 7.64829 8.19 7.04163 8.9375 7.04163C9.685 7.04163 10.2917 7.64829 10.2917 8.39579C10.2917 9.14329 9.685 9.74996 8.9375 9.74996Z" fill="#2563EB"/>
</svg>
