<svg width="20" height="18" viewBox="0 0 20 18" fill="none" xmlns="http://www.w3.org/2000/svg">
<g clip-path="url(#clip0_145_2185)">
<path d="M14.1666 12.6V14.4H4.16659V12.6C4.16659 12.6 4.16659 9.00005 9.16659 9.00005C14.1666 9.00005 14.1666 12.6 14.1666 12.6ZM11.6666 4.50005C11.6666 3.96604 11.52 3.44402 11.2453 3.00001C10.9706 2.556 10.5801 2.20993 10.1233 2.00558C9.66648 1.80122 9.16381 1.74775 8.67886 1.85193C8.19391 1.95611 7.74845 2.21326 7.39882 2.59086C7.04919 2.96846 6.81108 3.44956 6.71462 3.97331C6.61816 4.49705 6.66767 5.03993 6.85689 5.53329C7.04611 6.02666 7.36654 6.44834 7.77766 6.74502C8.18878 7.0417 8.67213 7.20005 9.16659 7.20005C9.82963 7.20005 10.4655 6.91559 10.9344 6.40924C11.4032 5.90289 11.6666 5.21613 11.6666 4.50005ZM14.3333 9.05405C14.7888 9.50792 15.156 10.0552 15.4136 10.6641C15.6711 11.2729 15.8138 11.931 15.8333 12.6V14.4H18.3333V12.6C18.3333 12.6 18.3333 9.49505 14.3333 9.05405ZM13.3333 1.80005C13.0815 1.80021 12.8313 1.84272 12.5916 1.92605C13.0791 2.68112 13.3405 3.57951 13.3405 4.50005C13.3405 5.42059 13.0791 6.31898 12.5916 7.07405C12.8313 7.15738 13.0815 7.19989 13.3333 7.20005C13.9963 7.20005 14.6322 6.91559 15.101 6.40924C15.5699 5.90289 15.8333 5.21613 15.8333 4.50005C15.8333 3.78397 15.5699 3.09721 15.101 2.59086C14.6322 2.08451 13.9963 1.80005 13.3333 1.80005ZM4.99992 6.30005H-1.66675V8.10005H4.99992V6.30005Z" fill="#EF4444"/>
</g>
<defs>
<clipPath id="clip0_145_2185">
<rect width="20" height="18" fill="white"/>
</clipPath>
</defs>
</svg>
