<svg width="22" height="22" viewBox="0 0 22 22" fill="none" xmlns="http://www.w3.org/2000/svg">
<g clip-path="url(#clip0_136_122)">
<path d="M10.9985 2.00799C5.46496 2.00799 1 6.47694 1 12.0016C1 17.5263 5.44337 21.9692 10.9769 21.9692C16.5104 21.9692 20.9924 17.5436 20.9924 12.0189C20.9924 6.49416 16.5404 2.00647 11.0069 2.00647L10.9985 2.008V2.00799ZM10.9977 4.2777C15.2741 4.2777 18.7232 7.73212 18.7232 12.0016C18.7232 16.2711 15.2741 19.7277 10.9977 19.7277C6.72138 19.7277 3.25066 16.2711 3.25066 12.0016C3.25066 7.73212 6.72138 4.2777 10.9977 4.2777Z" fill="#EEEEEC"/>
<path d="M4.43245 8.2208L10.9982 4.44824L17.5393 8.22437L17.5282 15.7918L10.9803 19.573L4.42383 15.7918L4.43245 8.2208Z" fill="#EEEEEC"/>
<path d="M7.64117 17.65L4.42868 15.7962L4.42146 12.0683C4.4175 10.0179 4.42389 8.33149 4.43568 8.32065C4.45121 8.30636 9.82192 11.3822 10.8192 11.9766L10.9247 12.0395V15.7729C10.9247 18.7414 10.9174 19.506 10.8892 19.505C10.8696 19.5043 9.40804 18.6695 7.64117 17.65H7.64117ZM9.44642 16.7528C9.44642 16.3135 9.44 16.241 9.39667 16.1905C9.36931 16.1586 8.79042 15.8297 8.11025 15.4594C6.76332 14.7263 6.63732 14.6511 6.45871 14.4737C6.24156 14.258 6.24059 14.2524 6.22953 13.1532C6.22002 12.2089 6.22145 12.1776 6.27602 12.1377C6.39 12.0544 6.37079 12.0454 8.01874 12.9543C9.46081 13.7496 9.38532 13.7117 9.41959 13.6576C9.43387 13.6351 9.44574 13.3914 9.44598 13.116C9.4464 12.6793 9.44007 12.6081 9.39667 12.5588C9.33868 12.493 6.68333 11.0217 6.47443 10.9397C5.99072 10.7499 5.68575 10.8304 5.52646 11.19C5.42816 11.412 5.4099 11.6505 5.41022 12.7084C5.41064 14.0908 5.46736 14.4577 5.75687 14.9507C5.89781 15.1907 6.28809 15.588 6.55011 15.7582C6.65365 15.8254 7.33169 16.2034 8.05686 16.5981C9.02003 17.1223 9.38492 17.3078 9.41088 17.2864C9.43688 17.2649 9.44642 17.1216 9.44642 16.7528ZM17.4876 7.81865C16.9749 7.02826 16.3649 6.3787 15.6013 5.8101C14.3934 4.91064 12.9379 4.38396 11.4222 4.29783L11.0811 4.27844L11.0737 3.14943C11.0674 2.20188 11.0726 2.01795 11.1061 2.00513C11.169 1.98104 12.0076 2.04619 12.4457 2.1092C13.0313 2.19343 13.5438 2.31648 14.1514 2.51879C14.763 2.7224 15.1208 2.87355 15.6685 3.15959C16.972 3.84047 18.1101 4.81046 19.0142 6.01119C19.2737 6.35581 19.6295 6.90203 19.6175 6.93729C19.6093 6.96118 17.6979 8.06812 17.6667 8.06701C17.6565 8.06667 17.5759 7.95489 17.4876 7.81865H17.4876Z" fill="#DDDA45"/>
<path d="M18.7142 16.3833C18.206 16.0885 17.7792 15.8303 17.7657 15.8094C17.7495 15.7844 17.794 15.6662 17.8972 15.4605C18.9885 13.2845 18.989 10.7143 17.8986 8.53998C17.8135 8.37042 17.7497 8.21672 17.7568 8.19843C17.7723 8.1581 19.6139 7.09633 19.6763 7.09172C19.8058 7.08218 20.4076 8.45627 20.6349 9.28051C20.8998 10.2412 20.9994 10.9825 21 11.9989C21.0006 13.0105 20.9009 13.7525 20.6349 14.7172C20.4146 15.5161 19.8145 16.897 19.6803 16.914C19.6571 16.9169 19.2224 16.6781 18.7142 16.3833H18.7142H18.7142Z" fill="#E7762A"/>
<path d="M11.0668 15.7765V12.0467L11.3582 11.877C12.9337 10.9596 17.5301 8.32356 17.5389 8.33233C17.5451 8.33856 17.5509 10.014 17.5517 12.0555C17.5529 15.1089 17.5465 15.7737 17.5154 15.8031C17.4946 15.8228 16.1855 16.583 14.6063 17.4924C13.027 18.4018 11.5945 19.2269 11.4229 19.3261C11.2514 19.4252 11.101 19.5064 11.0889 19.5064C11.0768 19.5064 11.0668 17.8279 11.0668 15.7765ZM13.0427 17.0108L13.2132 16.9084L13.4691 16.1708L13.725 15.4333L14.6341 14.9295C15.1341 14.6524 15.5523 14.4257 15.5634 14.4257C15.5744 14.4257 15.6754 14.5923 15.7878 14.7959C15.9002 14.9995 16.0144 15.1935 16.0416 15.227L16.091 15.288L16.4144 15.1046C16.5923 15.0038 16.7419 14.9003 16.7469 14.8746C16.7518 14.849 16.4694 14.2872 16.1192 13.6263C15.769 12.9654 15.3695 12.2099 15.2315 11.9474C14.9597 11.431 14.9001 11.3664 14.7292 11.4039C14.6188 11.4281 14.45 11.5968 14.3739 11.7588C14.3413 11.8284 14.0325 12.6836 13.6877 13.6593C13.3429 14.635 12.9124 15.8521 12.7309 16.3639C12.5495 16.8758 12.4089 17.3074 12.4187 17.3231C12.4359 17.351 12.6789 17.2294 13.0427 17.0108ZM14.3865 13.5063C14.523 13.1069 14.6457 12.7836 14.6592 12.7879C14.6992 12.8007 15.1645 13.6584 15.1469 13.6869C15.131 13.7125 14.2848 14.1776 14.1875 14.2141C14.1491 14.2286 14.1926 14.0738 14.3865 13.5063ZM2.06179 16.4906C1.59707 15.5572 1.2994 14.6481 1.13227 13.6516C1.03649 13.0805 1.00293 12.6446 1.00293 11.9719C1.00293 10.6555 1.24215 9.4265 1.73246 8.22383C1.85738 7.91742 2.23434 7.13944 2.28014 7.09351C2.29871 7.07489 4.13312 8.10256 4.22606 8.18365C4.23973 8.19558 4.18043 8.34361 4.09428 8.51261C3.68886 9.3079 3.42231 10.195 3.30264 11.1473C3.25129 11.5561 3.25866 12.5178 3.31643 12.9451C3.44279 13.8796 3.71293 14.7542 4.11274 15.5231C4.21503 15.7198 4.23525 15.7802 4.20773 15.8069C4.14791 15.8649 2.34423 16.8951 2.30258 16.8951C2.28025 16.8951 2.17588 16.7197 2.06179 16.4906Z" fill="#E02826"/>
<path d="M3.37742 7.52886C2.86242 7.23228 2.42424 6.97285 2.4037 6.95234C2.37287 6.92155 2.39901 6.86365 2.55377 6.61994C3.91664 4.47388 6.11599 2.9007 8.60287 2.29308C9.29956 2.12286 9.95721 2.03195 10.6119 2.01537L10.9104 2.00781V3.14316V4.27851L10.5693 4.29818C9.18672 4.3779 7.87649 4.81265 6.73992 5.56882C6.23323 5.90592 5.9451 6.14046 5.53651 6.5484C5.13899 6.94528 4.89761 7.23897 4.57939 7.71294C4.45361 7.90027 4.3424 8.05682 4.33225 8.06082C4.3221 8.06482 3.89243 7.82544 3.37742 7.52886V7.52886Z" fill="#3D9C46"/>
<path d="M3.33782 16.4634C3.84761 16.1714 4.28502 15.9314 4.30984 15.9302C4.33968 15.9287 4.41994 16.0263 4.54678 16.2183C5.88859 18.2499 8.1178 19.5355 10.549 19.6798C10.7386 19.6911 10.9038 19.7127 10.9162 19.7279C10.9434 19.7615 10.9436 21.8848 10.9162 21.9411C10.8597 22.0578 9.36696 21.891 8.53836 21.6754C7.57254 21.4242 6.87976 21.1396 5.99788 20.632C5.12007 20.1267 4.5263 19.6695 3.82251 18.9571C3.23969 18.3672 2.34189 17.1579 2.39428 17.0334C2.40334 17.0119 2.82786 16.7554 3.33765 16.4634L3.33764 16.4634L3.33782 16.4634Z" fill="#EEEEEC"/>
<path d="M11.081 21.9716C11.0728 21.9504 11.0695 21.4349 11.0736 20.8261L11.081 19.7192L11.4222 19.6995C12.8036 19.6198 14.1163 19.1842 15.2525 18.4282C15.7553 18.0937 16.0446 17.8579 16.4544 17.4488C16.8533 17.0506 17.0958 16.7557 17.4121 16.2847C17.5378 16.0974 17.6494 15.9407 17.6601 15.9366C17.6834 15.9274 19.5343 16.992 19.5876 17.0452C19.6186 17.0762 19.5939 17.1317 19.4441 17.3676C18.4934 18.8647 17.0953 20.1281 15.5133 20.9197C14.2137 21.5701 12.9455 21.9017 11.4154 21.9915C11.159 22.0065 11.0929 22.0026 11.081 21.9716H11.081ZM7.73391 10.0457C5.97117 9.02803 4.52893 8.18261 4.52893 8.167C4.52892 8.126 10.9241 4.44873 10.9954 4.44873C11.075 4.44873 17.5017 8.15437 17.4722 8.18327C17.4079 8.24611 11.0319 11.8992 10.989 11.8978C10.9614 11.8968 9.49664 11.0634 7.73391 10.0457ZM9.86217 10.2018C9.92577 10.1694 9.99693 10.1135 10.0203 10.0774C10.0437 10.0414 10.2643 9.62556 10.5106 9.15333C10.7569 8.6811 10.9673 8.29472 10.9781 8.29472C10.989 8.29472 11.2021 8.6918 11.4517 9.17712C11.7634 9.78324 11.9343 10.085 11.9975 10.141C12.1862 10.308 12.5426 10.3246 12.7568 10.1764C12.8631 10.1028 12.9332 9.97514 13.6631 8.52622C14.0981 7.6625 14.4471 6.93776 14.4387 6.91568C14.4262 6.88333 14.3334 6.87562 13.9604 6.87597C13.7058 6.87631 13.483 6.88579 13.4654 6.89726C13.4477 6.90873 13.2005 7.3828 12.9161 7.95076C12.6285 8.52518 12.3884 8.9723 12.375 8.95838C12.3618 8.94462 12.1561 8.55656 11.9179 8.09604C11.6797 7.63551 11.453 7.21582 11.4141 7.16338C11.2233 6.90578 10.7651 6.89823 10.5539 7.14919C10.5155 7.19487 10.2793 7.62444 10.0291 8.1038C9.77896 8.58316 9.56741 8.97549 9.55901 8.97565C9.55062 8.97599 9.32083 8.5257 9.04836 7.97541C8.7759 7.42512 8.53451 6.95253 8.51196 6.92521C8.47606 6.88174 8.41558 6.87559 8.02759 6.87597C7.78375 6.87631 7.56627 6.88777 7.54431 6.90165C7.50048 6.92935 7.72363 7.41589 8.57376 9.14624C9.03112 10.0772 9.08932 10.1657 9.29389 10.2417C9.44067 10.2963 9.71442 10.2771 9.86217 10.2018Z" fill="#304A96"/>
</g>
<defs>
<clipPath id="clip0_136_122">
<rect width="20" height="20" fill="white" transform="translate(1 2)"/>
</clipPath>
</defs>
</svg>
