<svg width="32" height="32" viewBox="0 0 32 32" fill="none" xmlns="http://www.w3.org/2000/svg">
<path d="M6.66668 8H30.6667V24H6.66668V8ZM18.6667 12C19.7275 12 20.745 12.4214 21.4951 13.1716C22.2453 13.9217 22.6667 14.9391 22.6667 16C22.6667 17.0609 22.2453 18.0783 21.4951 18.8284C20.745 19.5786 19.7275 20 18.6667 20C17.6058 20 16.5884 19.5786 15.8382 18.8284C15.0881 18.0783 14.6667 17.0609 14.6667 16C14.6667 14.9391 15.0881 13.9217 15.8382 13.1716C16.5884 12.4214 17.6058 12 18.6667 12ZM12 10.6667C12 11.3739 11.7191 12.0522 11.219 12.5523C10.7189 13.0524 10.0406 13.3333 9.33334 13.3333V18.6667C10.0406 18.6667 10.7189 18.9476 11.219 19.4477C11.7191 19.9478 12 20.6261 12 21.3333H25.3333C25.3333 20.6261 25.6143 19.9478 26.1144 19.4477C26.6145 18.9476 27.2928 18.6667 28 18.6667V13.3333C27.2928 13.3333 26.6145 13.0524 26.1144 12.5523C25.6143 12.0522 25.3333 11.3739 25.3333 10.6667H12ZM1.33334 13.3333H4.00001V26.6667H25.3333V29.3333H1.33334V13.3333Z" fill="white"/>
</svg>
