<svg width="32" height="32" viewBox="0 0 32 32" fill="none" xmlns="http://www.w3.org/2000/svg">
<path d="M14.6667 12C14.6667 14.2133 12.88 16 10.6667 16C8.45334 16 6.66667 14.2133 6.66667 12C6.66667 9.78668 8.45334 8.00001 10.6667 8.00001C12.88 8.00001 14.6667 9.78668 14.6667 12ZM18.6667 26.6667H2.66667V24C2.66667 21.0533 6.25334 18.6667 10.6667 18.6667C15.08 18.6667 18.6667 21.0533 18.6667 24M29.3333 16V18.6667H17.3333V16M29.3333 10.6667V13.3333H17.3333V10.6667M29.3333 5.33334V8.00001H17.3333V5.33334H29.3333Z" fill="white"/>
</svg>
