<svg width="32" height="32" viewBox="0 0 32 32" fill="none" xmlns="http://www.w3.org/2000/svg">
<path d="M25.3333 22.6667V25.3333H9.33334V22.6667C9.33334 22.6667 9.33334 17.3333 17.3333 17.3333C25.3333 17.3333 25.3333 22.6667 25.3333 22.6667ZM21.3333 10.6667C21.3333 9.87553 21.0987 9.10217 20.6592 8.44438C20.2197 7.78658 19.595 7.27389 18.8641 6.97114C18.1332 6.66839 17.3289 6.58918 16.553 6.74352C15.7771 6.89786 15.0643 7.27882 14.5049 7.83823C13.9455 8.39764 13.5645 9.11037 13.4102 9.8863C13.2559 10.6622 13.3351 11.4665 13.6378 12.1974C13.9406 12.9283 14.4533 13.553 15.1111 13.9925C15.7689 14.4321 16.5422 14.6667 17.3333 14.6667C18.3942 14.6667 19.4116 14.2452 20.1618 13.4951C20.9119 12.7449 21.3333 11.7275 21.3333 10.6667ZM25.6 17.4133C26.3288 18.0857 26.9165 18.8966 27.3285 19.7985C27.7406 20.7005 27.9689 21.6755 28 22.6667V25.3333H32V22.6667C32 22.6667 32 18.0667 25.6 17.4133ZM24 6.66666C23.5972 6.6669 23.1968 6.72988 22.8133 6.85332C23.5934 7.97195 24.0117 9.3029 24.0117 10.6667C24.0117 12.0304 23.5934 13.3614 22.8133 14.48C23.1968 14.6034 23.5972 14.6664 24 14.6667C25.0609 14.6667 26.0783 14.2452 26.8284 13.4951C27.5786 12.7449 28 11.7275 28 10.6667C28 9.60579 27.5786 8.58838 26.8284 7.83823C26.0783 7.08809 25.0609 6.66666 24 6.66666ZM9.78668 11.8933L11.3333 13.7733L5.00001 20.1067L1.33334 16.1067L2.88001 14.56L5.00001 16.6667L9.78668 11.8933Z" fill="white"/>
</svg>
