<svg width="67" height="62" viewBox="0 0 67 62" fill="none" xmlns="http://www.w3.org/2000/svg">
<path d="M47.3197 0.879169C48.5856 0.834306 49.7097 1.49491 50.3138 2.54084L66.0372 28.3335C66.4558 28.8523 66.6793 29.5115 66.7041 30.211C66.7289 30.9106 66.5526 31.5839 66.1717 32.1311L52.3137 58.9721C51.7852 60.0581 50.7107 60.7967 49.4448 60.8415L19.4636 61.9041C18.1977 61.9489 17.0736 61.2883 16.4695 60.2424L0.746155 34.4498C0.327516 33.931 0.104029 33.2718 0.0792361 32.5722C0.0544433 31.8727 0.230706 31.1993 0.611565 30.6522L14.4696 3.81117C14.9981 2.72511 16.0726 1.98658 17.3385 1.94172L47.3197 0.879169ZM7.24141 32.3184L19.1047 51.7771L29.5607 31.5274L17.6974 12.0687L7.24141 32.3184ZM47.2432 54.2487L57.7945 33.8622L35.4418 34.6544L24.9239 55.0397L47.2432 54.2487ZM45.5904 7.61131L23.2711 8.40232L35.2057 27.9919L57.5583 27.1997L45.5904 7.61131Z" fill="white" fill-opacity="0.1"/>
</svg>
